{
  "accessors": [
    {
      "bufferView": 2,
      "componentType": 5126,
      "count": 9601,
      "max": [
        0.3084999918937683,
        0.14429999887943268,
        -0.0
      ],
      "min": [
        -0.3084999918937683,
        -0.8543000221252441,
        -0.31690001487731934
      ],
      "type": "VEC3"
    },
    {
      "bufferView": 2,
      "byteOffset": 115212,
      "componentType": 5126,
      "count": 9601,
      "max": [
        1.0,
        1.0,
        1.0
      ],
      "min": [
        -1.0,
        -1.0,
        -1.0
      ],
      "type": "VEC3"
    },
    {
      "bufferView": 1,
      "componentType": 5126,
      "count": 9601,
      "max": [
        0.9968000054359436,
        1.9967999458312988
      ],
      "min": [
        0.002199999988079071,
        1.0059000253677368
      ],
      "type": "VEC2"
    },
    {
      "bufferView": 0,
      "componentType": 5125,
      "count": 13968,
      "type": "SCALAR"
    },
    {
      "bufferView": 2,
      "byteOffset": 230424,
      "componentType": 5126,
      "count": 17710,
      "max": [
        0.5467000007629395,
        0.06369999796152115,
        -0.10429999977350235
      ],
      "min": [
        -0.5467000007629395,
        -1.041200041770935,
        -0.3912999927997589
      ],
      "type": "VEC3"
    },
    {
      "bufferView": 2,
      "byteOffset": 442944,
      "componentType": 5126,
      "count": 17710,
      "max": [
        1.0,
        1.0,
        1.0
      ],
      "min": [
        -1.0,
        -1.0,
        -1.0
      ],
      "type": "VEC3"
    },
    {
      "bufferView": 1,
      "byteOffset": 76808,
      "componentType": 5126,
      "count": 17710,
      "max": [
        0.9973000288009644,
        1.9967999458312988
      ],
      "min": [
        0.0027000000700354576,
        1.0032000541687012
      ],
      "type": "VEC2"
    },
    {
      "bufferView": 0,
      "byteOffset": 55872,
      "componentType": 5125,
      "count": 18768,
      "type": "SCALAR"
    },
    {
      "bufferView": 2,
      "byteOffset": 655464,
      "componentType": 5126,
      "count": 28,
      "max": [
        0.00019999999494757503,
        -0.0714000016450882,
        -0.23579999804496765
      ],
      "min": [
        -0.00019999999494757503,
        -0.8968999981880188,
        -0.38119998574256897
      ],
      "type": "VEC3"
    },
    {
      "bufferView": 2,
      "byteOffset": 655800,
      "componentType": 5126,
      "count": 28,
      "max": [
        0.926872968673706,
        0.44721364974975586,
        0.432516872882843
      ],
      "min": [
        -0.926872968673706,
        -1.0,
        -0.9877735376358032
      ],
      "type": "VEC3"
    },
    {
      "bufferView": 1,
      "byteOffset": 218488,
      "componentType": 5126,
      "count": 28,
      "max": [
        0.8208000063896179,
        1.9818999767303467
      ],
      "min": [
        0.8163999915122986,
        1.9788000583648682
      ],
      "type": "VEC2"
    },
    {
      "bufferView": 0,
      "byteOffset": 130944,
      "componentType": 5125,
      "count": 36,
      "type": "SCALAR"
    }
  ],
  "asset": {
    "extras": {
      "author": "SB-129 (https://sketchfab.com/hrd4588)",
      "license": "CC-BY-4.0 (http://creativecommons.org/licenses/by/4.0/)",
      "source": "https://sketchfab.com/3d-models/tupolev-tu-91-boot-2ffafa5e479d484281cd60bfbb873abd",
      "title": "Tupolev Tu-91 (Boot)"
    },
    "generator": "Sketchfab-16.74.0",
    "version": "2.0"
  },
  "bufferViews": [
    {
      "buffer": 0,
      "byteLength": 131088,
      "name": "floatBufferViews",
      "target": 34963
    },
    {
      "buffer": 0,
      "byteLength": 218712,
      "byteOffset": 131088,
      "byteStride": 8,
      "name": "floatBufferViews",
      "target": 34962
    },
    {
      "buffer": 0,
      "byteLength": 656136,
      "byteOffset": 349800,
      "byteStride": 12,
      "name": "floatBufferViews",
      "target": 34962
    }
  ],
  "buffers": [
    {
      "byteLength": 1005936,
      "uri": "scene.bin"
    }
  ],
  "extensionsUsed": [
    "KHR_materials_specular"
  ],
  "images": [
    {
      "uri": "textures/5c32b0ef-d110-4982-962b-9d62175b1175_baseColor.jpeg"
    }
  ],
  "materials": [
    {
      "doubleSided": true,
      "extensions": {
        "KHR_materials_specular": {
          "specularColorFactor": [
            1.0,
            1.0,
            1.0
          ],
          "specularFactor": 1.0
        }
      },
      "name": "5c32b0ef-d110-4982-962b-9d62175b1175",
      "pbrMetallicRoughness": {
        "baseColorTexture": {
          "index": 0
        },
        "metallicFactor": 0.0,
        "roughnessFactor": 0.821115
      }
    },
    {
      "doubleSided": true,
      "extensions": {
        "KHR_materials_specular": {
          "specularColorFactor": [
            1.0,
            1.0,
            1.0
          ],
          "specularFactor": 1.0
        }
      },
      "name": "d0f8e818-bf5d-408d-a34b-ff1a071342b0",
      "pbrMetallicRoughness": {
        "baseColorTexture": {
          "index": 0
        },
        "metallicFactor": 0.0,
        "roughnessFactor": 0.821115
      }
    },
    {
      "doubleSided": true,
      "extensions": {
        "KHR_materials_specular": {
          "specularColorFactor": [
            1.0,
            1.0,
            1.0
          ],
          "specularFactor": 1.0
        }
      },
      "name": "7872ea23-4905-4bf5-8ae2-0c85456d94a9",
      "pbrMetallicRoughness": {
        "baseColorTexture": {
          "index": 0
        },
        "metallicFactor": 0.0,
        "roughnessFactor": 0.821115
      }
    }
  ],
  "meshes": [
    {
      "name": "Object_0",
      "primitives": [
        {
          "attributes": {
            "NORMAL": 1,
            "POSITION": 0,
            "TEXCOORD_0": 2
          },
          "indices": 3,
          "material": 0,
          "mode": 4
        }
      ]
    },
    {
      "name": "Object_1",
      "primitives": [
        {
          "attributes": {
            "NORMAL": 5,
            "POSITION": 4,
            "TEXCOORD_0": 6
          },
          "indices": 7,
          "material": 1,
          "mode": 4
        }
      ]
    },
    {
      "name": "Object_2",
      "primitives": [
        {
          "attributes": {
            "NORMAL": 9,
            "POSITION": 8,
            "TEXCOORD_0": 10
          },
          "indices": 11,
          "material": 2,
          "mode": 4
        }
      ]
    }
  ],
  "nodes": [
    {
      "children": [
        1
      ],
      "matrix": [
        1.0,
        0.0,
        0.0,
        0.0,
        0.0,
        2.220446049250313e-16,
        -1.0,
        0.0,
        0.0,
        1.0,
        2.220446049250313e-16,
        0.0,
        0.0,
        0.0,
        0.0,
        1.0
      ],
      "name": "Sketchfab_model"
    },
    {
      "children": [
        2
      ],
      "name": "root"
    },
    {
      "children": [
        3
      ],
      "matrix": [
        1.0,
        0.0,
        0.0,
        0.0,
        0.0,
        2.220446049250313e-16,
        1.0,
        0.0,
        0.0,
        -1.0,
        2.220446049250313e-16,
        0.0,
        0.0,
        0.0,
        0.0,
        1.0
      ],
      "name": "GLTF_SceneRootNode"
    },
    {
      "children": [
        4,
        5,
        6
      ],
      "matrix": [
        1.0,
        0.0,
        0.0,
        0.0,
        0.0,
        0.0,
        1.0,
        0.0,
        0.0,
        -1.0,
        0.0,
        0.0,
        0.0,
        0.0,
        0.0,
        1.0
      ],
      "name": "rab708_tupolev_tu_91_0.001_0"
    },
    {
      "mesh": 0,
      "name": "Object_4"
    },
    {
      "mesh": 1,
      "name": "Object_5"
    },
    {
      "mesh": 2,
      "name": "Object_6"
    }
  ],
  "samplers": [
    {
      "magFilter": 9729,
      "minFilter": 9987,
      "wrapS": 10497,
      "wrapT": 10497
    }
  ],
  "scene": 0,
  "scenes": [
    {
      "name": "Sketchfab_Scene",
      "nodes": [
        0
      ]
    }
  ],
  "textures": [
    {
      "sampler": 0,
      "source": 0
    }
  ]
}
