{
  "accessors": [
    {
      "bufferView": 1,
      "componentType": 5126,
      "count": 47305,
      "max": [
        0.13958299160003662,
        0.109436996281147,
        0.0542990006506443
      ],
      "min": [
        -0.13972799479961395,
        -0.08155900239944458,
        9.999999974752427e-07
      ],
      "type": "VEC3"
    },
    {
      "bufferView": 1,
      "byteOffset": 567660,
      "componentType": 5126,
      "count": 47305,
      "max": [
        1.0,
        1.0,
        1.0
      ],
      "min": [
        -1.0,
        -1.0,
        -1.0
      ],
      "type": "VEC3"
    },
    {
      "bufferView": 2,
      "componentType": 5126,
      "count": 47305,
      "max": [
        1.0,
        0.9803921580314636,
        0.9803921580314636,
        0.0
      ],
      "min": [
        0.09803921729326248,
        0.11372549086809158,
        0.0,
        0.0
      ],
      "type": "VEC4"
    },
    {
      "bufferView": 0,
      "componentType": 5125,
      "count": 157122,
      "type": "SCALAR"
    }
  ],
  "asset": {
    "extras": {
      "author": "Spark_Customs (https://sketchfab.com/Spark_Customs)",
      "license": "CC-BY-4.0 (http://creativecommons.org/licenses/by/4.0/)",
      "source": "https://sketchfab.com/3d-models/douglas-c-47-skytrain-bd01ee417416492f919a4b988f03bc8b",
      "title": "Douglas C-47 Skytrain"
    },
    "generator": "Sketchfab-16.65.0",
    "version": "2.0"
  },
  "bufferViews": [
    {
      "buffer": 0,
      "byteLength": 628488,
      "name": "floatBufferViews",
      "target": 34963
    },
    {
      "buffer": 0,
      "byteLength": 1135320,
      "byteOffset": 628488,
      "byteStride": 12,
      "name": "floatBufferViews",
      "target": 34962
    },
    {
      "buffer": 0,
      "byteLength": 756880,
      "byteOffset": 1763808,
      "byteStride": 16,
      "name": "floatBufferViews",
      "target": 34962
    }
  ],
  "buffers": [
    {
      "byteLength": 2520688,
      "uri": "scene.bin"
    }
  ],
  "materials": [
    {
      "name": "lambert2SG.001",
      "pbrMetallicRoughness": {
        "metallicFactor": 0.4373346661627921,
        "roughnessFactor": 0.7542880130682302
      }
    }
  ],
  "meshes": [
    {
      "name": "Object_0",
      "primitives": [
        {
          "attributes": {
            "COLOR_0": 2,
            "NORMAL": 1,
            "POSITION": 0
          },
          "indices": 3,
          "material": 0,
          "mode": 4
        }
      ]
    }
  ],
  "nodes": [
    {
      "children": [
        1
      ],
      "matrix": [
        1.0,
        0.0,
        0.0,
        0.0,
        0.0,
        2.220446049250313e-16,
        -1.0,
        0.0,
        0.0,
        1.0,
        2.220446049250313e-16,
        0.0,
        0.0,
        0.0,
        0.0,
        1.0
      ],
      "name": "Sketchfab_model"
    },
    {
      "children": [
        2
      ],
      "name": "root"
    },
    {
      "children": [
        3
      ],
      "matrix": [
        1.0,
        0.0,
        0.0,
        0.0,
        0.0,
        2.220446049250313e-16,
        1.0,
        0.0,
        0.0,
        -1.0,
        2.220446049250313e-16,
        0.0,
        0.0,
        0.0,
        0.0,
        1.0
      ],
      "name": "GLTF_SceneRootNode"
    },
    {
      "children": [
        4
      ],
      "matrix": [
        1.0,
        0.0,
        0.0,
        0.0,
        0.0,
        2.220446049250313e-16,
        -1.0,
        0.0,
        0.0,
        1.0,
        2.220446049250313e-16,
        0.0,
        0.0,
        0.0,
        0.0,
        1.0
      ],
      "name": "_1"
    },
    {
      "children": [
        5
      ],
      "name": "Mesh_Mesh_head_geo.001_lambert2SG.001_0"
    },
    {
      "mesh": 0,
      "name": "Object_5"
    }
  ],
  "scene": 0,
  "scenes": [
    {
      "name": "Sketchfab_Scene",
      "nodes": [
        0
      ]
    }
  ]
}
